<?xml version="1.0" encoding="utf-8"?>
<!-- Generator: Adobe Illustrator 25.2.0, SVG Export Plug-In . SVG Version: 6.00 Build 0)  -->
<svg version="1.1" id="Layer_1" xmlns="http://www.w3.org/2000/svg" xmlns:xlink="http://www.w3.org/1999/xlink" x="0px" y="0px"
	 viewBox="0 0 793.4 245" style="enable-background:new 0 0 793.4 245;" xml:space="preserve">
<style type="text/css">
	.st0{fill:#4B53EF;}
	.st1{fill:#FFFFFF;}
	.st2{font-family:'Arial-Black';}
	.st3{font-size:267.7771px;}
	.st4{letter-spacing:-16;}
	.st5{fill:#363D47;}
	.st6{fill:#4F5564;}
	.st7{fill:#EEEEEE;}
	.st8{fill:none;stroke:#363D47;stroke-miterlimit:10;}
	.st9{fill:#FDD303;}
	.st10{fill:#F9CE00;}
	.st11{fill:#D9F478;}
	.st12{fill:#5FD2D0;}
</style>
<rect x="-180.8" y="-429.3" class="st0" width="901.7" height="340.4"/>
<text transform="matrix(1 0 0 1 6.0127 200.8389)" class="st1 st2 st3 st4">SHOP</text>
<g>
	<path class="st5" d="M266.1-224.1h8.1c4.5,0,8.1,3.6,8.1,8.1v4l0,0H258l0,0v-4C258-220.4,261.6-224.1,266.1-224.1z"/>
	<path class="st6" d="M262-216h16.1c8.9,0,16.1,7.2,16.1,16.1v4l0,0h-48.4l0,0v-4C245.9-208.8,253.1-216,262-216z"/>
	<path class="st7" d="M330.6-143.4h-121c0-33.4,27.1-60.5,60.5-60.5S330.6-176.8,330.6-143.4z"/>
	<path class="st1" d="M330.6-143.4h-72.4c1.6-24.3,17.7-45.3,40.8-53.2C318.4-186,330.6-165.6,330.6-143.4z"/>
	<line class="st8" x1="270.1" y1="-292.6" x2="270.1" y2="-224.1"/>
	<path class="st9" d="M363.9-95.4c-21.6,26.7-53.5,42.9-87.8,44.6c-2,0.1-4,0.2-6,0.2c-2,0-4.1,0-6-0.2
		c-34.3-1.7-66.2-17.9-87.8-44.6l33.4-48h121L363.9-95.4z"/>
	<path class="st10" d="M322.7-62.7c-14.6,7.1-30.4,11.1-46.6,11.9c-2,0.1-4,0.2-6,0.2c-2,0-4.1,0-6-0.2c-16.2-0.8-32-4.8-46.6-11.9
		l25.4-80.7h54.6L322.7-62.7z"/>
</g>
<g>
	<path class="st11" d="M712.2,528.5c-23.1-18-93.5-44.7-164-71.1c-0.3-7.5-4.6-14.6-12-17.9c-8.2-3.7-17.5-1.4-23.2,4.9
		c-3.1-1.1-6.2-2.2-9.2-3.3c-0.2-7.6-4.6-14.8-12-18.1c-8.6-3.9-18.4-1.2-24.1,5.9c-4.6-1.4-8.6-2.6-12.1-3.6
		c-6.7-11.8-24.7-41.4-34.6-41.4c-11.7,0-35.9,33.8-21.1,63.7c-20.6,17.7-46.6,29.2-78.4,29.2c-30.5,0-124.2,9.2-138.2-28.3
		C169.7,412.8,75.1,480.1,97.2,604c1.8,10.3,10.7,17.9,21.1,17.9h599c10.1,0,18.8-7,20.9-16.9C742.8,583.6,733.6,545.2,712.2,528.5z
		"/>
	<g>
		<polygon class="st0" points="397.3,597.2 356.6,597.2 453.8,461.9 494.5,461.9 		"/>
		<polygon class="st12" points="518.7,597.2 478,597.2 453.8,461.9 494.5,461.9 		"/>
		<polygon class="st0" points="525.8,530.1 477.6,597.2 518.3,597.2 566.5,530.1 		"/>
		<polygon class="st12" points="525.8,530.1 571.7,597.2 612.4,597.2 566.5,530.1 		"/>
	</g>
</g>
<g>
	<path class="st12" d="M756.4-527.9v72.6h-20.5V-512h-13.5v-15.9H756.4z"/>
	<g>
		<path class="st1" d="M965.8-512c-22.4-20.5-62.5-38-119.9-59.6c-1.9-6.9-6.7-12.4-13.2-15.4c-7.1-3.2-15.2-2.7-21.8,1.2
			c-2.1-6.3-6.7-11.3-12.8-14.1c-0.7-0.3-1.5-0.6-2.2-0.8l9.2-7.7c3.5-2.9,3.9-8,1.1-11.4c-2.9-3.4-8-3.9-11.4-1.1l-15.6,12.9
			l-1.8-24.6c-0.3-4.5-4.2-7.9-8.7-7.5c-4.5,0.3-7.8,4.2-7.5,8.7l1.4,19.1C749.4-631,742.9-631,739.5-631c-12,0-23.6,16.4-27,31.7
			c-5,22.7-22.6,39-43.7,40.5c-2.2,0.2-4.5,0.3-6.9,0.3c-3.4,0-7.7,0.1-12.7,0.3c-23.9,0.8-80.1,2.6-87.5-17.1
			c-3.5-9.4-12.1-13.5-22.5-10.7c-29.3,8.1-74.5,72-60.1,152.3c2.1,11.9,12.4,20.6,24.4,20.6h467.1c11.6,0,21.8-8.2,24.2-19.6
			C999.4-453.9,992.2-487.9,965.8-512z M649.7-542c4.8-0.2,9-0.3,12.2-0.3c2.7,0,5.4-0.1,8.1-0.3c28.3-2.1,51.8-23.5,58.4-53.2
			c2.2-9.8,8.1-16.8,11-18.6c3,2.1,9.7,10,19,25.8c1.9,3.2,4.9,5.5,8.4,6.6l3.3,1c4.6,1.4,9.6,0.4,13.4-2.7c2.3-1.9,5.3-2.3,8-1.1
			c2.2,1,3.8,2.9,4.3,5.3c1.1,4.7,4.4,8.5,8.8,10.2l1,0.3c4.4,1.4,9.1,0.6,12.8-2.1c2.3-1.7,5.1-2,7.7-0.9c2.2,1,3.7,2.9,4.3,5.2
			c1.1,4.7,4.5,8.5,9,10.2c6.4,2.4,12.6,4.8,18.6,7.1l-60.7,120.3H558.8l56.8-112.4C627.7-541.3,639.7-541.7,649.7-542z
			 M495.1-436.5c-11.2-62.9,18.1-112.3,39.2-128.7c6-4.7,9.7-5.5,11.2-5.5c0.3,0,0.5,0,0.6,0.1c0,0,0.2,0.2,0.5,1
			c6.5,17.4,27.9,24.3,51.4,26.8l-57.3,113.6h-37C499.4-429.3,495.9-432.3,495.1-436.5z M979-436c-0.8,3.9-4.3,6.7-8.4,6.7H815.4
			l57.7-114.4c37.5,15.1,65.8,28.9,81.8,43.6C979.8-477.2,981.6-448.2,979-436z"/>
		<path class="st1" d="M653.7-455.3h14.1l2-15.4h12.8l-2,15.4h14.1l2-15.4h14.6v-13.4h-13l1.8-14.9h14.7v-13.4h-13.1l2-15.4h-14.1
			l-2,15.4h-12.8l2-15.4h-14.1l-2,15.4h-14.7v13.4h13.1l-1.8,14.9h-14.7v13.4h13.1L653.7-455.3z M673.2-499H686l-1.8,14.9h-12.8
			L673.2-499z"/>
	</g>
</g>
</svg>
